<svg width="20" height="20" viewBox="0 0 20 20" fill="none" xmlns="http://www.w3.org/2000/svg">
<path fill-rule="evenodd" clip-rule="evenodd" d="M1.75 10C1.75 5.44365 5.44365 1.75 10 1.75C14.5563 1.75 18.25 5.44365 18.25 10C18.25 14.5563 14.5563 18.25 10 18.25C5.44365 18.25 1.75 14.5563 1.75 10ZM10 0.25C4.61522 0.25 0.25 4.61522 0.25 10C0.25 15.3848 4.61522 19.75 10 19.75C15.3848 19.75 19.75 15.3848 19.75 10C19.75 4.61522 15.3848 0.25 10 0.25ZM14.1965 6.77854C14.3079 6.49998 14.2426 6.18182 14.0304 5.96967C13.8183 5.75752 13.5001 5.69222 13.2216 5.80364L8.22156 7.80364C8.03099 7.87987 7.87998 8.03088 7.80375 8.22146L5.80375 13.2215C5.69232 13.5 5.75763 13.8182 5.96978 14.0303C6.18192 14.2425 6.50009 14.3078 6.77865 14.1964L11.7786 12.1964C11.9692 12.1201 12.1202 11.9691 12.1965 11.7785L14.1965 6.77854ZM7.8464 12.1537L9.07709 9.07698L12.1538 7.84629L10.9231 10.923L7.8464 12.1537Z" fill="#5B5EA6"/>
</svg>
