<svg width="20" height="20" viewBox="0 0 20 20" fill="none" xmlns="http://www.w3.org/2000/svg">
<path fill-rule="evenodd" clip-rule="evenodd" d="M9 0.25H8.94358C7.10582 0.249984 5.65019 0.249971 4.51098 0.403135C3.33856 0.560763 2.38961 0.89288 1.64124 1.64124C0.89288 2.38961 0.560763 3.33856 0.403135 4.51098C0.249971 5.65019 0.249984 7.10582 0.25 8.94358V9V11V11.0564C0.249984 12.8942 0.249971 14.3498 0.403135 15.489C0.560763 16.6614 0.89288 17.6104 1.64124 18.3588C2.38961 19.1071 3.33856 19.4392 4.51098 19.5969C5.65018 19.75 7.1058 19.75 8.94354 19.75H8.94359H9H11H11.0564H11.0565C12.8942 19.75 14.3498 19.75 15.489 19.5969C16.6614 19.4392 17.6104 19.1071 18.3588 18.3588C19.1071 17.6104 19.4392 16.6614 19.5969 15.489C19.75 14.3498 19.75 12.8942 19.75 11.0565V11.0564V11V10C19.75 9.58579 19.4142 9.25 19 9.25C18.5858 9.25 18.25 9.58579 18.25 10V11C18.25 12.9068 18.2484 14.2615 18.1102 15.2892C17.975 16.2952 17.7213 16.8749 17.2981 17.2981C16.8749 17.7213 16.2952 17.975 15.2892 18.1102C14.2615 18.2484 12.9068 18.25 11 18.25H9C7.09318 18.25 5.73851 18.2484 4.71085 18.1102C3.70476 17.975 3.12511 17.7213 2.7019 17.2981C2.27869 16.8749 2.02502 16.2952 1.88976 15.2892C1.75159 14.2615 1.75 12.9068 1.75 11V9C1.75 7.09318 1.75159 5.73851 1.88976 4.71085C2.02502 3.70476 2.27869 3.12511 2.7019 2.7019C3.12511 2.27869 3.70476 2.02502 4.71085 1.88976C5.73851 1.75159 7.09318 1.75 9 1.75H10C10.4142 1.75 10.75 1.41421 10.75 1C10.75 0.585787 10.4142 0.25 10 0.25H9ZM13.75 4C13.75 2.75736 14.7574 1.75 16 1.75C17.2426 1.75 18.25 2.75736 18.25 4C18.25 5.24264 17.2426 6.25 16 6.25C14.7574 6.25 13.75 5.24264 13.75 4ZM16 0.25C13.9289 0.25 12.25 1.92893 12.25 4C12.25 6.07107 13.9289 7.75 16 7.75C18.0711 7.75 19.75 6.07107 19.75 4C19.75 1.92893 18.0711 0.25 16 0.25Z" fill="#5B5EA6"/>
</svg>
